<mxfile host="app.diagrams.net" agent="Mozilla/5.0 (Windows NT 10.0; Win64; x64) AppleWebKit/537.36 (KHTML, like Gecko) Chrome/135.0.0.0 Safari/537.36 Edg/135.0.0.0" version="26.2.14">
  <diagram name="PÃ¡gina-1" id="xM89JmlO_Qo7D5HgPxfQ">
    <mxGraphModel dx="2211" dy="850" grid="1" gridSize="10" guides="1" tooltips="1" connect="1" arrows="1" fold="1" page="1" pageScale="1" pageWidth="827" pageHeight="1169" math="0" shadow="0">
      <root>
        <mxCell id="0" />
        <mxCell id="1" parent="0" />
        <mxCell id="2xe0CVoRkT1_kcTEhnUZ-1" value="AWS Cloud" style="sketch=0;outlineConnect=0;gradientColor=none;html=1;whiteSpace=wrap;fontSize=12;fontStyle=0;shape=mxgraph.aws4.group;grIcon=mxgraph.aws4.group_aws_cloud;strokeColor=#AAB7B8;fillColor=none;verticalAlign=top;align=left;spacingLeft=30;fontColor=#AAB7B8;dashed=0;" vertex="1" parent="1">
          <mxGeometry x="210" y="47.12" width="1150" height="505.75" as="geometry" />
        </mxCell>
        <mxCell id="2xe0CVoRkT1_kcTEhnUZ-2" value="Internet" style="outlineConnect=0;dashed=0;verticalLabelPosition=bottom;verticalAlign=top;align=center;html=1;shape=mxgraph.aws3.internet;fillColor=#D2D3D3;gradientColor=none;" vertex="1" parent="1">
          <mxGeometry x="60" y="216.5" width="79.5" height="79.5" as="geometry" />
        </mxCell>
        <mxCell id="2xe0CVoRkT1_kcTEhnUZ-6" style="edgeStyle=orthogonalEdgeStyle;rounded=0;orthogonalLoop=1;jettySize=auto;html=1;entryX=0;entryY=0.75;entryDx=0;entryDy=0;entryPerimeter=0;" edge="1" parent="1" source="2xe0CVoRkT1_kcTEhnUZ-3" target="2xe0CVoRkT1_kcTEhnUZ-5">
          <mxGeometry relative="1" as="geometry">
            <Array as="points">
              <mxPoint x="550" y="258" />
              <mxPoint x="550" y="198" />
            </Array>
          </mxGeometry>
        </mxCell>
        <mxCell id="2xe0CVoRkT1_kcTEhnUZ-41" value="Token" style="edgeLabel;html=1;align=center;verticalAlign=middle;resizable=0;points=[];" vertex="1" connectable="0" parent="2xe0CVoRkT1_kcTEhnUZ-6">
          <mxGeometry x="0.4842" y="1" relative="1" as="geometry">
            <mxPoint x="-42" y="59" as="offset" />
          </mxGeometry>
        </mxCell>
        <mxCell id="2xe0CVoRkT1_kcTEhnUZ-3" value="Security&amp;nbsp;&lt;div&gt;Api Gateway&lt;/div&gt;" style="sketch=0;points=[[0,0,0],[0.25,0,0],[0.5,0,0],[0.75,0,0],[1,0,0],[0,1,0],[0.25,1,0],[0.5,1,0],[0.75,1,0],[1,1,0],[0,0.25,0],[0,0.5,0],[0,0.75,0],[1,0.25,0],[1,0.5,0],[1,0.75,0]];outlineConnect=0;fontColor=#232F3E;fillColor=#8C4FFF;strokeColor=#ffffff;dashed=0;verticalLabelPosition=bottom;verticalAlign=top;align=center;html=1;fontSize=12;fontStyle=0;aspect=fixed;shape=mxgraph.aws4.resourceIcon;resIcon=mxgraph.aws4.api_gateway;" vertex="1" parent="1">
          <mxGeometry x="280" y="218" width="78" height="78" as="geometry" />
        </mxCell>
        <mxCell id="2xe0CVoRkT1_kcTEhnUZ-15" style="edgeStyle=orthogonalEdgeStyle;rounded=0;orthogonalLoop=1;jettySize=auto;html=1;exitX=1;exitY=0.75;exitDx=0;exitDy=0;exitPerimeter=0;" edge="1" parent="1" source="2xe0CVoRkT1_kcTEhnUZ-7" target="2xe0CVoRkT1_kcTEhnUZ-14">
          <mxGeometry relative="1" as="geometry" />
        </mxCell>
        <mxCell id="2xe0CVoRkT1_kcTEhnUZ-8" style="edgeStyle=orthogonalEdgeStyle;rounded=0;orthogonalLoop=1;jettySize=auto;html=1;entryX=0;entryY=0.5;entryDx=0;entryDy=0;entryPerimeter=0;" edge="1" parent="1" source="2xe0CVoRkT1_kcTEhnUZ-3" target="2xe0CVoRkT1_kcTEhnUZ-7">
          <mxGeometry relative="1" as="geometry">
            <Array as="points">
              <mxPoint x="517" y="270" />
              <mxPoint x="517" y="440" />
              <mxPoint x="620" y="440" />
            </Array>
          </mxGeometry>
        </mxCell>
        <mxCell id="2xe0CVoRkT1_kcTEhnUZ-42" value="Context" style="edgeLabel;html=1;align=center;verticalAlign=middle;resizable=0;points=[];" vertex="1" connectable="0" parent="2xe0CVoRkT1_kcTEhnUZ-8">
          <mxGeometry x="-0.006" y="1" relative="1" as="geometry">
            <mxPoint y="38" as="offset" />
          </mxGeometry>
        </mxCell>
        <mxCell id="2xe0CVoRkT1_kcTEhnUZ-11" value="VPC" style="points=[[0,0],[0.25,0],[0.5,0],[0.75,0],[1,0],[1,0.25],[1,0.5],[1,0.75],[1,1],[0.75,1],[0.5,1],[0.25,1],[0,1],[0,0.75],[0,0.5],[0,0.25]];outlineConnect=0;gradientColor=none;html=1;whiteSpace=wrap;fontSize=12;fontStyle=0;container=1;pointerEvents=0;collapsible=0;recursiveResize=0;shape=mxgraph.aws4.group;grIcon=mxgraph.aws4.group_vpc2;strokeColor=#8C4FFF;fillColor=none;verticalAlign=top;align=left;spacingLeft=30;fontColor=#AAB7B8;dashed=0;" vertex="1" parent="1">
          <mxGeometry x="440" y="80" width="880" height="440" as="geometry" />
        </mxCell>
        <mxCell id="2xe0CVoRkT1_kcTEhnUZ-21" style="edgeStyle=orthogonalEdgeStyle;rounded=0;orthogonalLoop=1;jettySize=auto;html=1;exitX=1;exitY=0.25;exitDx=0;exitDy=0;exitPerimeter=0;entryX=0;entryY=0.25;entryDx=0;entryDy=0;entryPerimeter=0;" edge="1" parent="2xe0CVoRkT1_kcTEhnUZ-11" source="2xe0CVoRkT1_kcTEhnUZ-5" target="2xe0CVoRkT1_kcTEhnUZ-20">
          <mxGeometry relative="1" as="geometry" />
        </mxCell>
        <mxCell id="2xe0CVoRkT1_kcTEhnUZ-25" value="Lookup Policy" style="edgeLabel;html=1;align=center;verticalAlign=middle;resizable=0;points=[];" vertex="1" connectable="0" parent="2xe0CVoRkT1_kcTEhnUZ-21">
          <mxGeometry x="-0.3652" y="3" relative="1" as="geometry">
            <mxPoint x="28" as="offset" />
          </mxGeometry>
        </mxCell>
        <mxCell id="2xe0CVoRkT1_kcTEhnUZ-5" value="Authorizer" style="sketch=0;points=[[0,0,0],[0.25,0,0],[0.5,0,0],[0.75,0,0],[1,0,0],[0,1,0],[0.25,1,0],[0.5,1,0],[0.75,1,0],[1,1,0],[0,0.25,0],[0,0.5,0],[0,0.75,0],[1,0.25,0],[1,0.5,0],[1,0.75,0]];outlineConnect=0;fontColor=#232F3E;fillColor=#ED7100;strokeColor=#ffffff;dashed=0;verticalLabelPosition=bottom;verticalAlign=top;align=center;html=1;fontSize=12;fontStyle=0;aspect=fixed;shape=mxgraph.aws4.resourceIcon;resIcon=mxgraph.aws4.lambda;" vertex="1" parent="2xe0CVoRkT1_kcTEhnUZ-11">
          <mxGeometry x="200" y="60" width="78" height="78" as="geometry" />
        </mxCell>
        <mxCell id="2xe0CVoRkT1_kcTEhnUZ-9" value="Catalogo" style="sketch=0;points=[[0,0,0],[0.25,0,0],[0.5,0,0],[0.75,0,0],[1,0,0],[0,1,0],[0.25,1,0],[0.5,1,0],[0.75,1,0],[1,1,0],[0,0.25,0],[0,0.5,0],[0,0.75,0],[1,0.25,0],[1,0.5,0],[1,0.75,0]];outlineConnect=0;fontColor=#232F3E;fillColor=#ED7100;strokeColor=#ffffff;dashed=0;verticalLabelPosition=bottom;verticalAlign=top;align=center;html=1;fontSize=12;fontStyle=0;aspect=fixed;shape=mxgraph.aws4.resourceIcon;resIcon=mxgraph.aws4.lambda;" vertex="1" parent="2xe0CVoRkT1_kcTEhnUZ-11">
          <mxGeometry x="372" y="200" width="78" height="78" as="geometry" />
        </mxCell>
        <mxCell id="2xe0CVoRkT1_kcTEhnUZ-10" value="Tarificador API" style="sketch=0;points=[[0,0,0],[0.25,0,0],[0.5,0,0],[0.75,0,0],[1,0,0],[0,1,0],[0.25,1,0],[0.5,1,0],[0.75,1,0],[1,1,0],[0,0.25,0],[0,0.5,0],[0,0.75,0],[1,0.25,0],[1,0.5,0],[1,0.75,0]];outlineConnect=0;fontColor=#232F3E;fillColor=#ED7100;strokeColor=#ffffff;dashed=0;verticalLabelPosition=bottom;verticalAlign=top;align=center;html=1;fontSize=12;fontStyle=0;aspect=fixed;shape=mxgraph.aws4.resourceIcon;resIcon=mxgraph.aws4.lambda;" vertex="1" parent="2xe0CVoRkT1_kcTEhnUZ-11">
          <mxGeometry x="372" y="320" width="78" height="78" as="geometry" />
        </mxCell>
        <mxCell id="2xe0CVoRkT1_kcTEhnUZ-20" value="Roles Table" style="sketch=0;points=[[0,0,0],[0.25,0,0],[0.5,0,0],[0.75,0,0],[1,0,0],[0,1,0],[0.25,1,0],[0.5,1,0],[0.75,1,0],[1,1,0],[0,0.25,0],[0,0.5,0],[0,0.75,0],[1,0.25,0],[1,0.5,0],[1,0.75,0]];outlineConnect=0;fontColor=#232F3E;fillColor=#C925D1;strokeColor=#ffffff;dashed=0;verticalLabelPosition=bottom;verticalAlign=top;align=center;html=1;fontSize=12;fontStyle=0;aspect=fixed;shape=mxgraph.aws4.resourceIcon;resIcon=mxgraph.aws4.dynamodb;" vertex="1" parent="2xe0CVoRkT1_kcTEhnUZ-11">
          <mxGeometry x="450" y="60" width="78" height="78" as="geometry" />
        </mxCell>
        <mxCell id="2xe0CVoRkT1_kcTEhnUZ-24" value="" style="endArrow=classic;html=1;rounded=0;entryX=1;entryY=0.5;entryDx=0;entryDy=0;entryPerimeter=0;exitX=0;exitY=0.5;exitDx=0;exitDy=0;exitPerimeter=0;" edge="1" parent="2xe0CVoRkT1_kcTEhnUZ-11" source="2xe0CVoRkT1_kcTEhnUZ-20" target="2xe0CVoRkT1_kcTEhnUZ-5">
          <mxGeometry width="50" height="50" relative="1" as="geometry">
            <mxPoint x="210" y="250" as="sourcePoint" />
            <mxPoint x="260" y="200" as="targetPoint" />
          </mxGeometry>
        </mxCell>
        <mxCell id="2xe0CVoRkT1_kcTEhnUZ-26" value="Return Policy" style="edgeLabel;html=1;align=center;verticalAlign=middle;resizable=0;points=[];" vertex="1" connectable="0" parent="2xe0CVoRkT1_kcTEhnUZ-24">
          <mxGeometry x="-0.0141" y="1" relative="1" as="geometry">
            <mxPoint x="-5" y="-1" as="offset" />
          </mxGeometry>
        </mxCell>
        <mxCell id="2xe0CVoRkT1_kcTEhnUZ-28" style="edgeStyle=orthogonalEdgeStyle;rounded=0;orthogonalLoop=1;jettySize=auto;html=1;exitX=0.25;exitY=0;exitDx=0;exitDy=0;exitPerimeter=0;entryX=0.75;entryY=0;entryDx=0;entryDy=0;entryPerimeter=0;" edge="1" parent="2xe0CVoRkT1_kcTEhnUZ-11" source="2xe0CVoRkT1_kcTEhnUZ-5" target="2xe0CVoRkT1_kcTEhnUZ-5">
          <mxGeometry relative="1" as="geometry">
            <Array as="points">
              <mxPoint x="220" y="40" />
              <mxPoint x="258" y="40" />
            </Array>
          </mxGeometry>
        </mxCell>
        <mxCell id="2xe0CVoRkT1_kcTEhnUZ-30" value="Verify Token" style="text;html=1;align=center;verticalAlign=middle;whiteSpace=wrap;rounded=0;" vertex="1" parent="2xe0CVoRkT1_kcTEhnUZ-11">
          <mxGeometry x="200" y="10" width="81" height="40" as="geometry" />
        </mxCell>
        <mxCell id="2xe0CVoRkT1_kcTEhnUZ-32" value="" style="sketch=0;outlineConnect=0;fontColor=#232F3E;gradientColor=none;fillColor=#DD344C;strokeColor=none;dashed=0;verticalLabelPosition=bottom;verticalAlign=top;align=center;html=1;fontSize=12;fontStyle=0;aspect=fixed;pointerEvents=1;shape=mxgraph.aws4.role;" vertex="1" parent="2xe0CVoRkT1_kcTEhnUZ-11">
          <mxGeometry x="180" y="188" width="78" height="44" as="geometry" />
        </mxCell>
        <mxCell id="2xe0CVoRkT1_kcTEhnUZ-22" value="" style="shape=image;verticalLabelPosition=bottom;labelBackgroundColor=default;verticalAlign=top;aspect=fixed;imageAspect=0;image=data:image/png,iVBORw0KGgoAAAANSUhEUgAAAR8AAADDCAYAAAC73BWtAAAAAXNSR0IArs4c6QAAAARnQU1BAACxjwv8YQUAAAAJcEhZcwAAFiUAABYlAUlSJPAAADqdSURBVHhe7d0L3GXV+AfwHYlECaELIdemcoukRDdFpctUI2S8ZkqZpptSqRHTjYaMrpRLN41GylQohEluU6iEbu6VW7klSvH/+67/+8x/t52Z9x3nnDnnfc/z+3z2Z5+z99rrttfzW8961rPWXuZ//o0qkUgkljIeMnxOJBKJpYokn0Qi0RMk+SQSiZ4gySeRSPQEST6JRKInSPJJJBI9wYOm2u+9997qzjvvHP6XSCQSncdDH/rQ6nGPe9yDyefWW2+tPvaxj1WPfOQjh68kEolEZ0HJmTZt2n+Sz3XXXVe9+tWvHr6SSCQSncUHP/jB6k1velPafBKJRG+Q5JNIJHqCJJ9EItETjIp8GIh+//vfV/fff//wlUQikWgPI5LPP/7xj+qd73xndcEFF1T//Oc/h68mEolEexiRfH7zm99Uf/rTn6pJkyZVyy233PDVRCKRaA8jko8h18Mf/vDqEY94RPWQh6SJKJFIdAaLZBPuP3//+9+rG2+8sXra055WLbvsssN3EolEon0sVpX55je/Wc2bN6/afffdi0t0IpFIdAqLJJ9lllmm2mSTTYqt56Mf/WgamxOJREexWM3nYQ97WBly3X777dUDDzwwfDWRSCTax4gWZASEeNLHJ5FIdBIjks9qq61WPeUpT6nOPvvs6u677x6+mkgkEu1hRPLh23PYYYdVb3nLW3KrjUQi0TGMSD5g6LXCCivkjFcikegYRkU+i4IZsG9961vVj3/842ru3Lll/dd5551X/fnPfx4OUZWdEefMmVP99a9/Hb4yeoj/U5/6VHXfffcNXxkZ7FNf+MIXyr5EV1xxxUJDubi4Dsir/Fg2It6f//zn1YIFC4ont7D/+te/qr/97W/V9ddfX/Y3Ei62PBKHcH/5y1/Kf2Hvueee6rvf/W4J7znXmvC88t92220L4xLvL3/5y/Kc+Fo9B8LJh7zKn/r0XBy/+tWvql/84hfV5ZdfXn3lK195UBqJRD+jLfIhMDfccEMRgq997WtFM7rooouqn/70p+UeYf3hD39YXXbZZcVJkVAwXIdwODuEdfjtmSAM4GFt2h/iXghqPOvsevyfP39+Ecpvf/vbDwobef3yl79chPr888+vTjjhhOob3/hG9e53v7u66qqripAfeeSRpRwf/vCHy86OwnK4vPnmm6tjjjlmoYALa93b5z//+eqzn/1s9a53ves/7GLKe9ddd1WnnnpqCec5x2c+85lq1qxZ1SWXXFK95z3vKcTdhLjkbebMmYW8PHfhhRdWH/nIR6rTTjutOvHEE6t999231PeVV15Zff/736/++Mc/Dj+dSPQ32iIfMByz/OIxj3lM+b3ppptWX/3qV4vAOpDSlltuWUjg4osvrj7+8Y+XM1IhXASSINKgkMMZZ5xRjNtIi7CJ27OEKgjh0ksvLRoHQuAE6eCLRAARFKJ79KMfXZ71HwnReCKvK6+8ciEFgj158uRqjz32qLbZZpvq3HPPLRoTDebAAw+s3va2txUiQzLXXHNNyTvNI4gOGRmSChskgGjqENdJJ51UyqM+gGaozG9961urffbZp3rSk55UCLoJhIZslFMdIHf5RXgHH3xw9cQnPrHafvvty/Py8ahHParY5YKsE4l+RlvkQxjWXXfdas0116w222yz8n+nnXaqrr322kIWv/3tb6uf/exn1eabb16dddZZ1dVXX10961nPKoSEMCxY/cQnPlGGFQT6Ax/4QPX0pz+9WmWVVcp1xBHCd8oppxThXm+99QqZ0FoQEI3CUMiG1IhJ2Je//OUlnpe85CVlPZrnaBbrrLNO9dSnPrWQIRLae++9S34QiTiQkiHUBhtsUMiLj5N8IQ3XDj300OrJT37ycOmratVVVy0EYt2bsgADPWLzjGcRwkEHHVRIOfCHP/yhhPP8iiuuWPJ60003LUwrSGqXXXap9t9//5JXUBa/pad+1dvEiRMLCXEIffGLX1w99rGPLWETiX5HW+RDGJAPId1iiy2KxkGACS5hoskgEr0yzeZlL3tZ9YQnPKHaeOONi5ZC2AgODWPttdcuPTYbyDOe8Yxq+vTpw6lUhVCQGGFELLyuaVee1+vvueee1Y477lg0FBrCVlttVUiCQBLW3XbbrQj/8573vEI+7tMQJkyYUIYzSE9eCTpCQxggP34jA2Ug9LHGTdmVbfXVVy9lmzFjRrX11ltXK620UtHsaFE0K4TsuSAQQE6ed08a7rn2ne98pzzHboYQPecQtg5ao31wh4aGSl0jHOT/whe+sNR/IjEW0PawqwmCtOGGGxZBokUgCwKLGO64444yVKHRGC4QKsLqvmHb0UcfXYiHlnP44YcX0gHhIQSYwIZAGkqFIC8KBNlRh/80KMOX9ddfvzrqqKMKmTgMrdxHCIaGrYYy7iMldhvGdnYbZECjQQAIIUisCYSiTJ53RnhIJIiEFrcoSFc90tSQZysgYEezzIlEP6Hj5AO0IDYOszAbbbTRwiEGLWXbbbctQmcoVO/RhWVA1YMfd9xx5VoYb5dffvmieYgTISG25zznOeVanRSaBAGEmx2H5lQHWww7Ea3o+c9/fknLcOiVr3xl0cr8NguGSKQTkIaDcCNXxucYGv3ud78r95Rhhx12qF70ohcNP/V/iPzR/hAD7RDRsSfRzAwpPbfddtu1LAtEeRA8smoF5KSOgrQTiX5EV8hHz22I9YpXvKJoNnp6AsrWs9dee5VtOgydaC2GbLSWNdZYo9hf3v72t1cHHHBAsRMZkundhfOdH9PJ++23XxFy8SC1Zz7zmcOpVmXoVicKIIA/+tGPypR6HQhQmuI8/vjjq/e9733FzsSjGxFI58wzzyxDQuQH8im/8oM85MO92bNnl+cdrjU1DkSCcMQNnuG4acqfPejZz352sSm1gjIG0YLyMFgv7vNG1uJ98YtfLNpmItGv6Mp3u0RJM4AYDrlGcJwJo+uRdPTyMVzwP8J4hoYUcTr7H1qTa5FGhI34QPhIp65puSZ8HZ4TJvIB4o7nmnHVwwWEr6cfEM6zkdd41jVxOVo9F2m654j/EPlqgpbHbeB1r3vdf5BxItFrdPW7XYSEkIWggWtsO4TB2f+60MUzcT+edY6w8Xxci2cCcb2OeLYpqK6Lr37E887ScdSfa8bl3IyjmX5A2Hpe49l6eVoh0oz7zTy0guEt4hF/ItGv6Ar5JHqLsJEtitASiX5AW+RD/Q+flvrSAlPB7BKWDfS73SHKIM/KUR9Gmco3Fe9e/XoikWgfbZEPmwkvXM6DfGX8N3vjt6nnI444oiwFMJNEkBl3FyXE7ounvi6smzBrxgCOXHwWyLqv97///Q8iS0ZqSyY4Mib5JBKdRduaD+2Gn4pZHgKKbMzsmM3hQ4OMPve5zxUPYOukTGELR+its+J5TOMQBxKwJosmgozcM20cGokwyImPi3hpJL/+9a8XxgmuxX3PIUR5lJ64Iqz8Wi4hDWFpbtJ2T/rIyTVx2E5kcTaWRCKx5Hjou62oHAbBtCSiPn29OCAffi4c47j7m16nCZmOtuTC0gHT35z0eO3ecssthQRMLdOMeABbgW46Xrqmhy3N4MNihfbpp59efG4QhXj8F8Y6KIQmTcssaFSxlMK6ME5/X/rSl4rvDeOraX7xuiY909rWWyEjZPb4xz++5PknP/lJmWYXNz8Z3ss/+MEPike0Ke9EItE+OPdabdAW+TBoWpfEgZBrP2G33MIaKwL89a9/vQjtS1/60rLuCGnwJOZcR/AtyORrg2g41rnOrwaJGLpxNuQhffLJJxdysWqbz5DnDImQj6EdB0W/EYmhlIWXHAc5ESIyi1f5DVmHRduSNj8jQy1+RfLGs5mDYRCWZRi0H6TlWQbcRCLRPoJ82hpLIB/C6uBt678hF/LhcBdrsJBITFsjD+Rm6YHr7CmGWJ5FVMLQNgi+7S4+9KEPlaEQUnTvuc99blmKwQERadCuaE6GRzyS2ZcQFy3JEMxz0lZYaXL0Y9dxLabH5Yl25jDtzUkSKeZsUSLRPXTUkIEwpkyZUmwu9n3m4WwLCEspwiZjqGaDMLYYwyHaSAxp3AMkYRhEw6GZvPGNbyxrvpBP3Xel7jcDnqMh8ZD2HPJDNkjEszAaQpGPyG8ikegOOko+/EsMc2g9jMcOW2lY7Y0okIwhFq3DMMnaKPvaGAbFUgUbfVlmwUBtCCW8MKOB4RE7Eg2I7clq80U52skPDUgeGJgDMSv3yU9+Mgkokegi2rL5NEGrYGsxJGKTMRSyet1CSyRgKEOrYMA1A0VT8jVUBl82F1oLUjK08ozlHjQkG3UJY7hFI3I23BKfIReNh40m9vCxcZjwtC7DQXHTnAwPrcuy3QZjsny6RksLzQiUw/OQNp9EorMIm09X1nYhjNAaCHUMj1yTnGvCQAyD4ixMhKeFAOJyvx6neCKu+nW/xS18xCOc/804Ig9+R/ogjGeson/ve99bVpo7csYrkWgfXV3bRehpCo4gACDk/hN0hOLw3+GeI4jGEXEEMUQYcC1+1687e6Yej2ut4oi0417AfddpUvYVesELXlD+JxKJzqEr5DNeYDjHv8gwNMknkegslgr5MOiaPm/uqTMW0NSKEolEZ9B18mE/sb8MvxsG6EQikYCukw+jselv+8uYQk8kEglYKpqPKXVT44lEIhHoKvkgHg6Epu/zky6JRKKOrpKPtVU2ZbdWypqvRCKRCHSVfCyXOOSQQ4rfjJXniUQiEegq+Zim5vBnOYONwBKJRCLQdYMzrcf6KyvbYzlDIpFIdJ18LHPYcsstyzopU+6JRCIBXScfQy8zXfZzbn4+OJFIDC66Tj5g6GW3QNtZNGE6niOiJRixr074BjU/WyNcrHQPWH1uXx5DOs/HpvGuQ8TvCA9rZ/E64tnRQnyeYcOSx8hbt6AcUaZA5KFehihvlNWhPuJ3ItFv6Oh+Pv8NCM6nP/3poiH5xK/vklsD5ksXl156aRmuMVhb5GnzeMJmj+UAQfTFDPv52HTMNqr2BBJGnOIXl32mxbfeeuuVr1ZIy0ZiDnHa24dxvBX4KsUKfL+5D1x44YVlT2laHTcCX7qwAZoZvk6uB0PAymeLV/sSIXIbr1muIu/XXHNN+Ra9fLCt2Zfachblnj9/ftlVUr7TzyrRL+jIHs6dACG5+eabi5A4++/LFuuvv3516KGHlk3AbBJPsPkLEW69vF49en47FhJ+wuhrGj6FExqP+BTWfWThWbYn8du3yOZjvnhh50P3PEOjEW/EYdN7eRPH7NmzC1HJ2yabbFLNnDmz5J0jpR0cPUdLoa2Ix1m8DnlxiFMYv4VXFvdbwRc17O7o6x/CQ2yU/6pXvarsEokY1ZG47Mkkrz4JZDGvzwHZuC2R6Df0nHz0ynYmNCTTOxNKwmIPHf8RhEOPT7AQC6HW8/s2GC0ESRjW2eyLdmD3QgJ92mmnlfCWdtAcfOIntBK7FyI2JOSTP4TcM/PmzStfv/CxwBtvvLG64YYbirbjSxg0irvuuqvaaKONChH6Kseb3/zmom2deeaZ5T6NimaCiN7xjneUjZMM0WhjPtcza9as6oorrijx2KgMiZ1zzjkLiaUOhGS/62nTphUyqftK0dLsN2S93G677VbIGakFiSFpZVaH6iOR6Df0nHyQhl0CbZ26zTbbFKHy+R2f0Dn22GOrSy65pMyWGVL47A0twxcxDDX22GOPsg0qwXXfx/18wkdcSAa5ILW99tqrkJLFrUE+tCUkYKjmG13UwOuvv75818um9rZx9QVTJIUcd9xxxzK0Q1Y2p6edGS6us846JR2f/jG0898XNwwVbWRP8JEOrcSwz7DSd8sQky1nlQFpXXzxxYU4EKkDfBDREJSh3tCO5hb3EA3tx7fIfC1E+WIDNUBMu+yySyFKmloi0W/oOfkQGPsy00p8aBAZMUMdc8wx1YQJE8oeygSUIIJhDJLQ2yMZX7ZAWLQegk8I9fbiMSQheOKhCSCJAE0HgdGM7CONbHxnjJbkHN/3opkhOPGyOyEyQy/DNaSx3377lT2jY0govGGRIZFyyYPPQCMN/xEt0IQQCxsNYkKA7EhmBWleiMhzyMQm+jS/GD6C+KRLO0NwRx99dEk/oBzKq/zynUj0G3pOPgFCRuAQi+9urbXWWtVOO+1UiIj2YigTQwpDs9AA6r/FET0/tPofeP3rX1+GM8jEhwmRIEiXtuBwH4kF2FDkzeby2267bXXQQQeVb4d973vfW5g3qP82lJMu8kBikSdkSYuSjk32aSmGf7Q3+9uKw4cXfcgQoSFaw1EfVgTPy7s8GvrRtKRRR728iUS/oW/IBwiLoY0ZHEMUhKP3pxmEvYaWY2jFTsKYaiYryKcOdiFhaC+tgGzE5UxoCTMDsuEYDYJWYnZNmsLIC+2HMZfx16xgaE80NnHRZpAGrcOzjN8+wUPbqRODIZQ42Yqk5Yuq4jNDh2QMy2g1hpNI0pBv1113LZqdoRbCjXxFGRZHNKElMay3qqtEohfo+VR7HQRIL49cDDEMNwi0Hp6As3MgJ/YZQs7eQSBpK+xEdQF037CI7aPpX4SYPEeriWecEZwhG41DGFqI/+w+CNHwbeONNy5GaGkzACMH2o+hj7pDPD4NRNgN3+Trta99bSEJgi8OZEHLMeRCduI07BNGPhy33357SZeNyHX1Ii/i8H6EYZRvajuGpcitqQmpR1PvPuTYfCaRWJro6qdz2oUs6fX18ISOVkJg/If4bUhDkIGA1kFIo2jiqMNzrjWFUHjPEWDCHcOkmEUSPv47/I+8ue+5iNd9eQztxH3XIp8RXnquRTkCwkor0gTxec7/eK6JVs95hsZmSDtx4sRyL5HoFbr66Zx2QWhoJTQW5xAWgu1wn7AashDAVkLomQjfhPCtBFC8wou3rhUFgbjnOYRjGrueN2GRlbARJvIX9+v5jPDCNIkHXIuyBvyP663KDK2eA5ojDax5PZHoFbILHAAgHEQZmlwi0Q/oOfkYJnDCM4VsKYGhBduTKfD6YahkmMJ2wVDLJsNRz/OjgaGHuB3ikZbZo7pzn3uuMXBLwzMgbU58EdZ1YeQ54oqwSwJpKLtD2onEIKHnBmeCx5lPj3zRRReV6efp06cX50IOf47LLrts4TfYjzvuuDLkuPzyy6tzzz23GGsNz0L46z17nRDYSBiwkYs0eRqzcRkiMewCMuBxzGfHcgsezO5zbOQwyJjMgI0o3DeTps44CMqfsK3yEXCvfp0vk7KYlZOWoVoiMd7RN2u7CCQBJJTsFUiCVsGfxpIGxxlnnFGtvvrqZfrb7JGZoltuuaV4GvO5of0gTWTgtzgRBC2JEx4tidZixspMlTDSciAMaQrvLFydzJzPOuusko6lE/LmmnAOWpH4XfPb9D8HRb8dHA7F7XdMxfuNBKUPhkORXiIxKOg5+TCOrrHGGkWrsDyhFRCTIY4FoZYYWJVuKpoPDf8bSx0sxbDI8/jjjy/DIH42tBW+LZzwPMdbmvZjCGUqerXVVivev9ZNDQ0NFULgEYxoTFdLV1jP8aRGcIvaixopUSItpaDJ8ThGkPvvv38ZHprm5qtDuxKf+9KxLET51UMiMUjo+bCL1mObC0RAq6EVWG915ZVXliEXBzz+Mjx9aSwElv+NFezWf9GGuAcceeSRxYfFAk9OehaITp48uZo0aVJ5joMgDcSwbosttijDHA59yMaMk2uGW84IQZ4QAtLiL7TzzjsX72Lai3u2+ogZLdoOgy5PZ9VpaQWiVDaEhuiQD5Ljk0QDM1zk2azc1niF9pdIjHf0zbCLwBn6xAGGIzSYU089taxMZ59BCBEWKTj7z25jf2gLNW0rgQQMhwi9Fd/+cwREGPVn47c4nMUfw7C4ZiiECGlZFpsiDUTHZtSEIR8yi1klmhOtadNNNy1bYhiKIRtkhjgtFkU49bIkEoOEnpNPK4Tw1+0yrSAcjYbXMLIylKFF8ASmldA0EBGDLrYFdp0maEbCOdeBMCxotZD0lFNOKUMqwz/LKprgHe16xGU4yE6FAC0aRUi0KlpckE6dcOTLzJlnE4lBQN+RT2gk9rqZMWNG0WYciKBORs6E2FCLJmJbCQRhZortyHVkwZuSncdQzNoptiCEUjfwshEZLrHbBNyn5VgZTosx3PO8WS1LK+QxSMSZZiUe6dnLBwztbMfBIdESDPli27IswjN1IK0TTjihaEWJxCCg75ZXEEL2FLafOmgQtA52G2TA1kOzMMyhZZiGR0oEmxGZBsFGY+jjWbYd5GC2C1EIE5qHsIZuptFpKAHGZRqUZ8WtqqTFNoZUXHNfGjyIGZbFjxjXXnvthWuxaETsSQ5GaFqSw/MBebDOC1EhuERivCKWV/Tl2q5BBNLlL7T55psX+1MiMV7R12u7BhG0JVtnJPEkBgU9Jx+KVzj5OQKu0wZqitmI8PyShK+n3TRE++9Y0jy0g27PeC2unJ0o42jrP/LRqXQTYxM9Jx+2HRtksa/EF001SM54prnZUxbVQF3XkBGEhswnyIzRaOFZ/jfsMNIWBzjbtdA2FDY1a9qfugllWpIyjBbKZJpfPdfrkyHfvkJR9v8W6sg+SK3cEJpYsGBB8SezhzY7XmIw0XPysTTBbBTjsI3hgSCYlTKDZV9j5BIgOO4H8VhjZSN3YTgDhuDWwwX8rl8nMNaI2Y3QDFb03O4TVNcRoDzG8/U4nRf1W7hm+s1rzWcc0rIvdP16PBPXmlhUvI76s2YC+T/Ff7D8xNo5dRHXR8pjHJEuqHce57GEJA6IsPGfuwHyQeyjIavE+ETPyceMDzsHT+GwdyABDdT+M/xzQvPQUC04ZbBCOrQj663MEunRzX6Z+haO8dZXJJzNJBFqz+qdOS+GpmO2zMxVrK9icDdzZn2XmSczVPLoeR7XnB4Ro2l5cQRhMta77zqB9kkfa8LMyonXTJvP4JhO1+MLR+gRgnzQvvgDiUNZhEGotBJpIlizaXWIVx24xxfpggsuKOkQbI6N/isrIgXuAjETiHQRRUD5LOzVEUiPh7g8nn/++WV2DzhSKjttxftRv8poBjCIBexCoN7lQ34QODeIqHO7PsqHOs/FtIOLnpOPBmihqC878IvRODkHarjWZGnIhl4EkbMgohGO0FPfTbvHlyXmzp1biIfwGDZZwsBvxj7PhIvfD8G2FeuJJ55Y4rWBu6n4DTfcsNhcDLV4NJsqt8zE1yf45BBiyydM09OS9NqWSrjO89lqe3mQX3HLFyOyletIw3ovRGSzevkhyIhQOQmudBGfKXvPOSMeZeY+YLremra6LxKSnjNnTiEu+UReyNje0RbkEnxl5YDpefeERebCqpNAEI08KSMiQvyI1NCUZoNwlJWWKn71670oY2ic3p1FwUhRh2LNnfrk/GmBsHfGlQARmtkTJjGY6Dn5EGyCb3GlRqkx6ynt44xICAKNQWPW6H3lQThruZCGtVGc//jUEEYCxWdHOEL7hje8oRAV4dDgp0yZUr4DJh0HAeD8Z+0YobfNqGuWSiDECIvMrD3TU0ufVkEr8oWNww8/vGzL4TpiooG553npIiRCPzQ0VNaWcUKkWdWHIn6DPZsRMmKjZYiT5qWOwg7l88kOJOMTQspKwAk+LUQ9IB15s7wDiSIfaTgIvM/zqLeAfCj/3nvvXW2wwQbFKRIxips2Rkvif4WsaWVTp04t78iUqXAIjUblY4vepU3zlVt+1Zsy2TfbszzSOVuq29R8Bhc9Jx/aBuEyXHLWiGkrVHuaDGHRS9uaAgnQLoQ1JKK+e8YRM0XCEz73CZN7IdiETmOPBt9M2//wWI54/Q+CYC+hLRGk+AChPEhP3P4LIz3CKiwyM7RDQpF3zwgvXofwSNPzcUib5qI+DHvEa1U8oaUVOeQDCbG1eAZpOIN7yi89w0rEEBB3lLEO/+XLc+GBjUiVzztQBhqhjgDZi1vYKIO0ldf7s9jW+wLvThkQapC8tByR38TgoefkU4dGblikUfomllXrBx54YBFAPboGTwj8ZvdhyxBW4xYGEAutggDoeQ1d9LSuR0NfVIOXvk3W2Xzq8Cyhd1iNS/hiOMjeYusOz9HMLBh1nZDSPgx15MfQ0JCRjccWIJ6XD7NNYeMB1+RDHLQ+QzYahjjki7ZCY3CoD7YmS0logYZtSIbQ0/5oHbQSeaOFBYShVUljJCBxGqSOQH7UgTPtVBmUybUgO58foh3RVl1DvDRLZaD9IVnvLKCsNCp5TwwW+urTOXpPQyRDE8KrMeuJCROB0WsiE4ZLgscTmzbBJkHVp20QRELPcCocUrIinRAQdPYlAm4mi5AQ6oD0CZMe3lKLgB7ethgRp/zQQqTruuENYzl7CFKQD8JtqYXhEvKjqRi+IE/rxdh+aCTKixysPROXumcbQlLKZ6hlexHXfKjQMFN+QoDlGXFJy1CJgLM3GWYhIHYb19WddxtDQjYdwyHCr478lgbtSZ0jePlDWoaU4pM+EpUHexLJl+u0QNf8Vi7vDqG4ZtgoLeX2rjhS1jsCWhNbEtuSfCbGP2JLjb5aXiEroaqH2g+h1RA49x3ua8QxZNHLEqR4LjQA/90TN1JBQnEfuRHkgDDiEKe463At4nRPvH4Tovgd6TsL6570pCFuRl3hCLdr4pQn8F94eXJNePn22+G6/3WtAaRliOp5YcSJzBiObWQW5XdPPUY68hH5cojXs675LaxzXHf4Hc+4rzziVR6oxy9f4H+93MK7HxAvIzRtEnEnxj9ybdc4Bq3DNP4+++xTiKefgXyQZ5BkYvwj13aNY5gx23ffff9De+tH0KYMx5J4Bg89Jx+Kl96Pmu7wn4pOhY/D/5qC1heQH/mNvNfhmjw3ry8tGOrQJOrDm0Si39Bz8jGdzCmPIddyCvYbn6/hb+KYNm1a8YthLO0nAuKDxFYv37yZ60TDe9gSCU57iUSiNfpC8+HDwkDL6Ehr4DB3yCGHFE9Z09IIii+LMMCAaZq4TkbsBqal6yTAUOtaPCd8/Ab3Q0uhYUnH88KFb02k4YxwhPHbIZ+0jGZelMPMjRmxRCLRGj0nH8Jr6teUt939AuwA/EfsImj6NxzurFny9Qo2DeSEdPj00JIOPvjg4heEcEyrx/+hoaHiIyMOvkPiQTK++8U4S0NBduKkYVkK4bcpeoZbpGMN01577VUOPixISx7l3dkQx3avps7FHTNFiUSiNXouHaaikUMshQCaiDVT1ktZuuBzONz8ObVZ1mAtkXtm5/ibIAhrm+z7zIvWMgMEwV/IgkvEYo0RUjCsQxxAC5IWDYg2JU6kJV6LJn0RwxCKs551XeKwrINfjWeOOuqokp5veiGaPfbYo5QjSSeRGBl9ofnwouUDEg5/hNeiRV97MO3vnu0yaC+GQpYUICcaDKLh2EYjsoAy4qPBGPpwRuR0iCxiyAT1YZL0rDviVEcTsnCVRsPxDtnwQ5GuBath36FdcSzktxKaD2c819LQm0iMjL7sopEBD0jesYiFVsNb19QxD1vf4aJtbLXVVkXzIOwWSlrMGFqKa2HDiWEWLStmzgzXwv4jrNkh6SK6sD2x5fBURmY8nmlm0vZRQItUm0Bw0qkTWyKRaI2+I58gAuf4b0kAIuC2j4BoQIZHtB3EQDOxmlxYB63F+iN7/lhbRVN6zWtes3DfIHvN2KSMLQfh0JZoMM5WtBvKIR3bVSA9SzZ8bof2RTOyjEK6TbAduZ/kk0iMjL5a2xUw/JKHcJLzH0nQcthxeGFb+2S/HxqJtVPWBsV6LQeiQgK0INtj+FooRzZhkZf1TxaBWlOFlKxDYtymHXHSs2hVGJ6YhmPiQ3I0J+kazgVBBixwtfDTVhe0IAQo34lE4v/Rl2u7xgus+FaPhoFWcycSif9HLq/oIhisEbh9exKJRGuMCfKhnI0lOwobla00ej18/W+wpPW8JOHH0jscDTpZHnGNt/oZCWOCfGzSZarbXjVsLonuwKwge1gTZg1bbTxGWBj+w2+qDjOJ9gcKCMsjXDz2O+JXFZCuWUp2MkP/uhBKOzbZ7yfIj03gzIwuijS0VbOqdbAL2r+bvxm/NfE4sxOqg2b48YwxQT6nn356ach8bOqNdhBBQM8777zSUDsNhNFcj0bAbKJm5tCGZUECCMMmYNbjuV8XQj5QZiKN7c0acj9wCMuQb1M1nuDeqWecOYOasZw1a1Z5Jt6zL46YZRwtCPXJJ59cZidbgZBzUjXT2Q6U35pE5+bEA8iHOvOu6vDhAfZAawLd451vIoOjrA8cmPAZFIwJ8uHEZ9aIDUVj1XC8MI0+GpmZOj2raXA9ix7ZYbc9joie0xN5uQRB49AIeCtrkHoc4cM3iLYlHY1L43ddWoTKrJrnhdOTC0co5cFOi+6Lj0CaqhdW2np1YREIofaxRPlxT1yElke1BokIYvbRPcKoXMpiszBaoLhct9shlwLaYVNDiDwSdrs0hg+TMqsvuzHagVCeuBrwn1JX4hLWkhd1RFi4MMir3lt4uzPSlMw0mklUTvfMGEpTfjleenfK45rZRoJmszPLZ+RF/TLMm7mk5UjbTKe6F5ZPlesIV52pJ3n0rPqJHRXlyTvyXhGa+lFOcagvdeHsvvjUnb2mkV1oXhHG+1HPwkQ9iUuepK2s6ks8yuaa+hJG27EM59xzzy3xBfxWj5xfzfhoK7G0SBuHsbANSqfQl1PtTWhs9ijWEGzr6RtQtvnka8PT2ZIGDcqaLCq97UiPPvro0qA0UJ9sMf2uwcycObM4Leq1NHoCYN2WaXa9EkExjW5dV3znShWZktej2q6VoNMCTPvLiwYJ4vYsgpK2KXvf6dIo1a3PzXBQtPRDjy5tS0dM6Wv4M2bMKPsdEyakpVH7CisDtrxb3a8eNFzgQqDMQZo+rcPWFJ7iQODthy3f4tQb22d5+vTphcCRi32o1S0yUdbtttuu+EIhK6SASLkaIBICd9hhhy2sT2SCeJTV8MESFb5SSMjOhHy2pEF4kZLw4uCSIP+gLrhCiE/eABEhBnlUJnUjfnnxOSF1j/Ss7/PuaGzqQD3y05KmtOWH97oyuodIdALq0TsSFxudekEk8mf9H+Lh0CqMRc3cMfh9ybs26L2oLyQqHXVj6Q/isVWvPGt7wnPpQE4IUjtVLzoR4bQx7Vg7876FVU/jGTHVPiY0Hw1TA3PWM3ixvJv1Gl6YF4kANGgLQhGAF2gnP/srR2/tRVuPhWB8R8qexK5pIHpMDR9x0DykpxETbP5F0tG4hfWFBr2XePRwvLBpFhoj3x5T7BqvPO25556l4Rs6Dg0NLSQUntJeAKE1fCHolnPY41jjR6B6SoeG66wc8uWeOkAsCNTMGjJAAgTSfsl6+6uvvrrk17o45OFZwicueeOxLa/SlAd5c8A222xT/JnE6fnYv1m9WkNHGAmhZTAcONWFukTA3hHHTHWhI5NvvTwS5TMlPuWnyepEaDqeJfjqwHswlEHw4uYAKh/y41NBiNQ7QhgWHXtGORCB9LQL3vHiVU6OpTQ6dS0PhF1ayuzDlNJQ54aD3jESRNjeK+Jx37tS59qH+zog5RMfYqVliS82+9eJKGsd2pM4lcWOB0gaaWlf4tLhqddBwZggHz1LeCDrvfSGeixDLNDDgBepoQmHgGgWhMWzBNh1PaIGyRP57LPPLoJKGAkP8iC8VGOkhXgIjcanUTtr9OwTwomTAEmDuk1DI/SGBnpWAkRgpS+P4giBYN+g7mu0SJPG6Rn5RxJ6RZAGEGBxiFM55BdhEoSIiwZF8PXsMTQjTISKoCKeiE88hFR6MZyKenSPADmk5VAGaTors3T8dy880gmVHjzeVTyjfmkthL8en2cMGb03dRjxi09eaIDITXjkJG5pWKunvpCvsiqfthBOnXEgXBvnIwzaL80j7olf3al7cSIk+fFu/EZw8u3QMahf7cE7RNCel2/vSQfgXYhX3sTThHqXR+RTr5+oD/UZdTIoGBPkU4exuEZEo0AQXpoGA15cvLz6b/DyEZfGagikl+LopBfW8DWyEDiCq0cjmH772gTbhsZh6w7PafBhDzDUowXwknZPvqJBIy8kqCc0lPHb9Z133rmEJZB6SA1Zz0hDQ3CMj4SQ0Bq2Idwop7IQHMMFAunrEbQYvSbimjRpUvmcjzSQrPSsuDdU8WwIlWGY9JzFQwgiftokAQ9CCsiDd6DsTRgS1b/XBZ43FDHEUp46xOWefBHcgPQNgcTn3XiPyD0Ix9AFUSN2hEMjoglrC8oqTflTjzoU2jAtA5mB/EnDu9YewlYjLfUQ8P7FZ5jkXdGypKHjQYrKg/ANEdl3DKlb+XZJy3tUXvfr7bIJYWmDyt+s+/GGMUc+BE5DNWMR5ioqMGGPhqpRaDTRy2lkriEdNgINTKMxG2OzMo1cQxUmPr0TqrtwrlONDZc8HzYk181Y6NE0UARlZb28IRuNyFDAyni7M+o9aSLIQhh2KZqSYYMeUQ/qi59mhfTY0pRni2bFoxwav/zJg/T17oaSDoJEswvtwcFWhSykR0Dco5lp5P7LF1I0nFGHyNE9xnw2jKYAEGozUjS4Jmh+tMIm+RiWGLI0QRgdtIkmdDDqX34BWRrSqR+dCNIxlNIJsOuwfXl32gAtiS3NOzBDylbHriS+GNb4nA/bFo1QO7Jjgd0n1YHOQDtCPmxjPm+t/gzB2GQMsRERCEcj9u60iciv69EBqU+dmGfrJNsKwipT01g9HjHmllfILgHWA3qxGoihC8EE/zV+qrH7ILzrXrye3pCM5kCwhSHQwmuYXrjfhFAYcYlbY/JszMSErUjchFxDkw/5cl8a4iKs4ornCYfwBFU6Gnr0ttLzvDBIBDyDHIUJgZAn+ZBfZaIRqBeagLSFC8iDOMWBUKVBQGiONlsjoOpAPhAFLUC8woN7zfiUUz6Uow6koLzqK7QocUb4EMxAvKd4N3VIP4YjtBKGfXYZcahbzyizelBH0lSGeCfyos78ViZ1qn6UxXuXd2VzT/78Fi/QZP0WVhrCyw+tRZzqUPgoIwIVh/txzXPqQvmF9UyUp16fTQhPW9UZItdmnY0H5KdzBhgIxMuP7933OwxtaYNm2QjyeAZxNBSNIfXiiGqsItd2DTD0wHZqZKcaC2AUtuUtbWe8A9mwA45kGxoPSPIZUBg2NodN/QpkGXaYxPjBmHAyZPDT+BgNDRPGitB0A2wC7BzOna4HdguOkPVvphuiGfbwVmYHCduM4QF7DSO8mTq2iSAHeWPTYjg1U4g8XPPfc9oYsMOEHY7hXo9vtoxBm6GYy4Phh3TZhzgSMhQzYDvMWIpXu+AZzpAe98wcMuRLj/HW1PlohmzCs8+oY/lrEp702InYedhv2oF64CZB3po2L7Yqdh/LUdStIZh6lDfyYIatqQnKs3eyKLsSOxgZj3ofDRjSvQfOltoHG2G7GFNOhgruhbNJEQYNxFkD8BucHRpphNFQ4ncrCCsO4eL5CBvX6r+dhfdcKwgT6cf/VvHEb2GdA834hY3w8VsDMpOjLuKe9DwT/5twXbyOgGuRh8ivRh5exwFT/GbSEALP7HqaZph4h/tCSN2HyOyaL3kIbxN+eZYW8iFM4uKxjCQ8Y6qfTxISYtcxKyVuzpxmI/nXyKcpbp0Pp0gHx0KzfRwgOe3FTB1XB86DhFCZ+enovNzzv9km6vXnIPScQuOac/23cgkTcbgm3vjvrLxxQKt3JF8Io04U7jvMqtptU92Z5UMAriMPs7vISJzuxzOIjJd+pBP3Iw/q0bsMQ7gw4Bxh/PZM1BEy85xD2p3EmNB8TGXzSDXrwTPZlLblEaY8CaFrGoPGrWc0qzF37tzycufNm1fIC9Nq3KaCTftq8Hxp4usUprVttxqOihp9OKBpCKa3TcvqfTkmspeYYdGr6o0MY9w3HcufhL+NGRJTuKa7NTCeweJxndFNfr1UAuVla9TxvJ7aPWVECNKglYCpcYJoWYkpaVPJGp6eSY9YnyHR0MTrEJeGqYzyYg2ajc9oCfKoN1R/HOfEZxdIPjiek3/T8QSavUh4ZUQazvxs+AZZ4sFHipuBxosUlIVG473xUjeNLx98k9QvDUabo8EgE64IZtz0soRMvrxTPlM8iJXbf4f7NCP1H4TM38Y9v9UTeN/S8Y6UR3o0IfnXDpRX/mlq6tN1hGWmULuI+qV90NLEa9mGcN4xNwrtS/0jB++WVsglgCOlMJwdCTnfI+/be1Sf2rf26R4XCsJvPR1XDO1eXZJL5WaMprmoc0t3hNMGtF/tQ364h2gv2rr7JpHET5uMdYnyrx3yltfOpIv0LSEhO7RIWqe0pK3c/nuX7WJMaT56OA1RD6cS+J/4zUVfz6zCvSCNatNNNy0VFiq7HpAwq0DDlDCyqmyOYqYzkZqlCBqxOPTcKsjBc1XD9YIIKQEkAF4SyBdBkQ89OWFDhrQTgkEo9PRma+Qr/IsImfxrOHx9CLp8mgXQqJEAYbBAUqPUAymnRqfB+LIHoSQ4ykwTUC80EGE1MI2Y+q4uCLpnLPUg+MrinvKrFw0XUWmciMZUv7QQLIdF0/IEWv2rQ0KDSGkqyEIcDoKFUCzPoPUQRvlXN4jMdD+/JffCnQEpEbK6b486JwDKKD+EVb4JNK3EIc/eO4T24BwHbUQ98skxfCC43p/6JZgc+ULoaEvevWlu/7Ud70jHw3/He+Wrg7CUyTV14L1aK7j77rsXAkI03oGOz3vxDiKMNquzQmLqXn0b4iIf17w3bUD8NEPtRzikyoFVedznMInktQPpqgPhlEuePa+edCKTJ08uZdc56xTEudlmm5V2FXXnWeWWB5oTJ1V+Z9qKtm25Cx8qxNxJjAny0fPrhWgIGr8GpOJoICrMARqwSjNT4GV54YiAMGjkGruKFYeX5poXj5g0BC9L74hIEJPGqodQ8UhGQ9J7EQiNUTwEmq1CY0M0hEYj0WOKH3F6+e4jFtc1JoKkAWgMSEXvpFHpKXkmy2cIFOjFHcpGgOUHaWo4VHeChDDErdHQDJERAZHXSENvhwzEzaUi1lKJS57APQ5x6hJh0nJoCtKmFRoOaZTS0xOG1iRfNBthkBCidSAOgkuoCa/w3pVw6ksekZzyiQe8X88gLQQSeRMfoYvDs4sCTUT8iESZvF/p0ozc0+GoO3VIMxN3CLr2hmzllfZAO0Ye0aEgZiSjw6JJe2/Kh0DVr//S81+52MB4OUeZkYG4aSyEWvtwTVunccsDTY9TpTDaBv8j70m+dAA6EM94f/IkL8rg3XgP2qEOlMnCexen+td2tN065JGceJbWhgi1Qe+Fpiw977eTGBPkU4eXSJMg2NGTBghHNF4VqYI1OkcIr0bsZRj7auAaiZfvOcLkBVObvTz3kRGC8VL01noXPbLnvVyCpbH5rcFqlF4uTcSL9hJBuvIsvHwJp6HQojQe92kOkccgiPgtz84QZZGmxiwehx5NQ6Wei5Nqi/j07hqR+4Gok4jT/zpcdwhTRzzTvA6tnvEbsdNmCFU9HXVBUyBwIdQIx3XaCu/iMBo7xEFToFU5kCeBa+Yd5MP78760i0DEBdIRp3fhQBbSgwinw6Chiou2hKTivvr3fIRVTu9QfrwX71kY7SDekQ5RWtoQ8lFuGhL7jiEhYgQdhyE+r+upU6eWMiAt2qb4tElOl9qHYSFbWuRDO+NpT2vXvqXbCurI84gpnqXhIlOdso9kiqtbGHPkQ3OIyvdyNQov2AsP4mn121kvx/ahp/OfMHr5NBwNUbwaht6FQOi9aRQ0Jr2MoRbVleZFC5IuWwDtiLDo5TznpVKPpWF4IB2NjvpNwBCZRqsXpmVpJIhUj8PuZsxNe5EfeUE87AwairIot3Aar4YjTj0T+43GL14NiEaGrGknBMsqcXlSVnFRzdWnvOoVaRHi1gj1qLQOZakDmaoHddgEbYLQiDsgLfHLj7TrUIfqTJ1K2y4E7CBsQt6VuhGf/HjW2ZAYYTmUR925DvGeHfJAm6ClxbM6EvGKnzDLE3i/tGppe867IXTqnbGX9mfYqj3QstWRelO/yB0p0GoIrHg8Ly8OHYF3QPty0OK8I3WFSIRx9j6VzbvzW16mTJlS6t915TQ0soxHnRpua/vWJtLu5Ue64nUoB00N8WjD6jrI0KEN0oblm51RHRnmMwmIz3A8yKlbGBMG5zo0GpXPpkIANCANIHpPQqjS9EIah5frZegBVb4GEkMz428VLg49Gi2EEFLn9Ri0BYKtN9Rw2H0InsY2bdq0ov5qEBqvZ+XrnHPOKY3CYkd5UKcarvuGWTQ1xMkQTvg1Tr24dDVKJKPXHBoaKuouTUyPKJw8KAcNDenRbAyPpEmwkKJ6UE5QdmEJqbE8slJugoVcCBMjL40kts9QV9JSRuHYD8QTQD6ImJAhxzo8i8jZHQgCqBM2HUMS9VSH+iEUyoR83FfXbGA0AUSBkLxXGp3/6tDQyIG4lNU7JzyIgfbpv3QJLVIXBhEhEQSv3dAoaKjiRfQ0EWu0EKE6M0QVHmnrDAy9aF00Ss/5r32pf8LLrhbbpKgjZVF33qkzYy8yVc+0NUeYEZRdXcor8kFW3rvyxdAfCciPehSeti5fyqNzoWlrQ9q3uLUDU/LqAGEha1qVdm64qKyGkswI7FfaAFMDwjWDSQO1GFkbqb//TiAMzrm8YgBBMPVs+h2ENN6hp9ejE2waaJBzojfI5RUDDFqCXpwWNAjQc9MymjanRG+R5DOAIIz2uCGMgwDltX2G4WSnhxCJ/x49fxPG/GwFxuFN42aiewij6CCAtmOolcTTX+j520A8pgWNA7tpWU8kEv2FnpMPy7zpQjMrqfkkEoODnpMP9d90ZKrEicRgISU+kUj0BEk+iUSiJ0jySSQSPUGSTyKR6AmSfBKJRE/Qc/KxWtdKc4sME4nE4KDn5GNluH1ybFtqtW4ikRgM9Jx8+PlY4Gj7ivT1SSQGB12Vdrt12MvF3ic5rEokEnV0XdWwMZONq2x2lUgkEoGuko/VxGw6NkT3dYZEIpEIdF3zYcexRaS9hu2gl0gkErBULLz2nrUnsL2EE4lEApYK+Vi1bhd9m10nEokELBXysUuhjcL48yQSiQR0nXxMt9sqleaTfjyJRCLQdTawQ6Hv9HTiA/OJRGL8oKvkQ+vxPXUfP/NRs0QikQh0XfPxFcQDDjhgYL4RlUgkRoe2yCc+S8yg3MqHh5OhmS6f4c2PtSUSiTraIh/DKt+L9tld30uvfXk5kUgkFou2yIc2s8MOO5QPsjEsJ/kkEonRoi3yMXW+/PLLl6FVIpFILAm6bnBOJBKJVkjySSQSPUGSTyKR6AmSfBKJRE+Q5JNIJHqCtsjHSvX58+dXt912W06zJxKJJUJb5GOqfdVVV62mTp1arbnmmunFnEgkRo22yWfChAnVRhttVK200kpJPolEYtRYLPnYh+e6666r7rnnnrKOa1FI0kkkEkuKxZIPO85VV11VHXvssdV99903fDWRSCTax2LJx2r0oaGhsmj07rvvHr6aSCQS7WNEm48vT9CADLtyRiuRSHQKI5IPo/Jaa61VXXvttcUGlEgkEp3AiOQDu+66azVnzpzy3fVEIpHoBEZFPieddFJ1xBFHVOuuu+7wlUQikWgPI5KP7VFtk7riiiuWTcMSiUSiExiRfO68885COkk8iUSik1gs+dx///3VggULqkmTJlUrr7xyOhMmEomOYbHks9xyy1Xbb799NXHixGqFFVZI8kkkEh3DYskH2fDzWXbZZZN4EolERzGizSeRSCS6gSSfRCLREyT5JBKJniDJJ5FI9ARJPolEoidI8kkkEj1Bkk8ikegJknwSiURPkOSTSCR6giSfRCLRE4xIPrF9am6hmkgkOonFkg/iuffeexcei/t8TiKRSCwJRjXsSq0nkUh0Gsv8m1gWMsutt95aNorfeuuth68kEolEZzF79uxq8uTJDyafm266qTr77LOrVVZZZfhKIpFIdBZ33HFHNX369AeTD5vOAw88kHv3JBKJrsK2zA8in0QikVhaSD+fRCLREyT5JBKJHqCq/hfiDkV7zuxRGgAAAABJRU5ErkJggg==;" vertex="1" parent="2xe0CVoRkT1_kcTEhnUZ-11">
          <mxGeometry x="620" y="42" width="213.41" height="145" as="geometry" />
        </mxCell>
        <mxCell id="2xe0CVoRkT1_kcTEhnUZ-23" value="" style="endArrow=classic;startArrow=classic;html=1;rounded=0;entryX=-0.009;entryY=0.391;entryDx=0;entryDy=0;exitX=1;exitY=0.5;exitDx=0;exitDy=0;exitPerimeter=0;entryPerimeter=0;" edge="1" parent="2xe0CVoRkT1_kcTEhnUZ-11" source="2xe0CVoRkT1_kcTEhnUZ-20" target="2xe0CVoRkT1_kcTEhnUZ-22">
          <mxGeometry width="50" height="50" relative="1" as="geometry">
            <mxPoint x="580" y="168" as="sourcePoint" />
            <mxPoint x="630" y="118" as="targetPoint" />
          </mxGeometry>
        </mxCell>
        <mxCell id="2xe0CVoRkT1_kcTEhnUZ-7" value="Tarificador Fusion" style="sketch=0;points=[[0,0,0],[0.25,0,0],[0.5,0,0],[0.75,0,0],[1,0,0],[0,1,0],[0.25,1,0],[0.5,1,0],[0.75,1,0],[1,1,0],[0,0.25,0],[0,0.5,0],[0,0.75,0],[1,0.25,0],[1,0.5,0],[1,0.75,0]];outlineConnect=0;fontColor=#232F3E;fillColor=#ED7100;strokeColor=#ffffff;dashed=0;verticalLabelPosition=bottom;verticalAlign=top;align=center;html=1;fontSize=12;fontStyle=0;aspect=fixed;shape=mxgraph.aws4.resourceIcon;resIcon=mxgraph.aws4.lambda;" vertex="1" parent="2xe0CVoRkT1_kcTEhnUZ-11">
          <mxGeometry x="180" y="320" width="78" height="78" as="geometry" />
        </mxCell>
        <mxCell id="2xe0CVoRkT1_kcTEhnUZ-17" style="edgeStyle=orthogonalEdgeStyle;rounded=0;orthogonalLoop=1;jettySize=auto;html=1;" edge="1" parent="2xe0CVoRkT1_kcTEhnUZ-11" source="2xe0CVoRkT1_kcTEhnUZ-7" target="2xe0CVoRkT1_kcTEhnUZ-10">
          <mxGeometry relative="1" as="geometry" />
        </mxCell>
        <mxCell id="2xe0CVoRkT1_kcTEhnUZ-18" style="edgeStyle=orthogonalEdgeStyle;rounded=0;orthogonalLoop=1;jettySize=auto;html=1;exitX=1;exitY=0.25;exitDx=0;exitDy=0;exitPerimeter=0;entryX=0;entryY=0.5;entryDx=0;entryDy=0;entryPerimeter=0;" edge="1" parent="2xe0CVoRkT1_kcTEhnUZ-11" source="2xe0CVoRkT1_kcTEhnUZ-7" target="2xe0CVoRkT1_kcTEhnUZ-9">
          <mxGeometry relative="1" as="geometry" />
        </mxCell>
        <mxCell id="2xe0CVoRkT1_kcTEhnUZ-33" value="" style="edgeStyle=orthogonalEdgeStyle;rounded=0;orthogonalLoop=1;jettySize=auto;html=1;" edge="1" parent="2xe0CVoRkT1_kcTEhnUZ-11" source="2xe0CVoRkT1_kcTEhnUZ-32" target="2xe0CVoRkT1_kcTEhnUZ-7">
          <mxGeometry relative="1" as="geometry" />
        </mxCell>
        <mxCell id="2xe0CVoRkT1_kcTEhnUZ-36" value="" style="edgeStyle=orthogonalEdgeStyle;rounded=0;orthogonalLoop=1;jettySize=auto;html=1;" edge="1" parent="2xe0CVoRkT1_kcTEhnUZ-11" source="2xe0CVoRkT1_kcTEhnUZ-32" target="2xe0CVoRkT1_kcTEhnUZ-7">
          <mxGeometry relative="1" as="geometry" />
        </mxCell>
        <mxCell id="2xe0CVoRkT1_kcTEhnUZ-37" value="&lt;div&gt;&lt;span style=&quot;font-family: monospace; font-size: 16px; text-align: left; text-wrap-mode: wrap; background-color: light-dark(#ffffff, var(--ge-dark-color, #121212)); color: light-dark(rgb(0, 0, 0), rgb(255, 255, 255));&quot;&gt;InvokeLambda&lt;/span&gt;&lt;/div&gt;&lt;div&gt;Role&lt;/div&gt;" style="edgeLabel;html=1;align=center;verticalAlign=middle;resizable=0;points=[];" vertex="1" connectable="0" parent="2xe0CVoRkT1_kcTEhnUZ-36">
          <mxGeometry x="-0.0207" y="1" relative="1" as="geometry">
            <mxPoint x="-1" as="offset" />
          </mxGeometry>
        </mxCell>
        <mxCell id="2xe0CVoRkT1_kcTEhnUZ-14" value="External API" style="aspect=fixed;sketch=0;html=1;dashed=0;whitespace=wrap;verticalLabelPosition=bottom;verticalAlign=top;fillColor=#2875E2;strokeColor=#ffffff;points=[[0.005,0.63,0],[0.1,0.2,0],[0.9,0.2,0],[0.5,0,0],[0.995,0.63,0],[0.72,0.99,0],[0.5,1,0],[0.28,0.99,0]];shape=mxgraph.kubernetes.icon2;prIcon=api" vertex="1" parent="1">
          <mxGeometry x="710" y="590" width="50" height="48" as="geometry" />
        </mxCell>
        <mxCell id="2xe0CVoRkT1_kcTEhnUZ-16" style="edgeStyle=orthogonalEdgeStyle;rounded=0;orthogonalLoop=1;jettySize=auto;html=1;exitX=0;exitY=0.25;exitDx=0;exitDy=0;exitPerimeter=0;" edge="1" parent="1" source="2xe0CVoRkT1_kcTEhnUZ-5">
          <mxGeometry relative="1" as="geometry">
            <mxPoint x="358" y="238" as="targetPoint" />
            <Array as="points">
              <mxPoint x="520" y="160" />
              <mxPoint x="520" y="238" />
            </Array>
          </mxGeometry>
        </mxCell>
        <mxCell id="2xe0CVoRkT1_kcTEhnUZ-40" value="Policy + Context" style="edgeLabel;html=1;align=center;verticalAlign=middle;resizable=0;points=[];" vertex="1" connectable="0" parent="2xe0CVoRkT1_kcTEhnUZ-16">
          <mxGeometry x="-0.3618" relative="1" as="geometry">
            <mxPoint x="49" as="offset" />
          </mxGeometry>
        </mxCell>
        <mxCell id="2xe0CVoRkT1_kcTEhnUZ-45" style="edgeStyle=orthogonalEdgeStyle;rounded=0;orthogonalLoop=1;jettySize=auto;html=1;entryX=0;entryY=0.5;entryDx=0;entryDy=0;entryPerimeter=0;" edge="1" parent="1" source="2xe0CVoRkT1_kcTEhnUZ-2" target="2xe0CVoRkT1_kcTEhnUZ-3">
          <mxGeometry relative="1" as="geometry">
            <mxPoint x="225" y="258" as="targetPoint" />
          </mxGeometry>
        </mxCell>
      </root>
    </mxGraphModel>
  </diagram>
</mxfile>
